<?xml version="1.0" encoding="utf-8"?>
<!-- Generator: Adobe Illustrator 18.1.1, SVG Export Plug-In . SVG Version: 6.00 Build 0)  -->
<!DOCTYPE svg PUBLIC "-//W3C//DTD SVG 1.1//EN" "http://www.w3.org/Graphics/SVG/1.1/DTD/svg11.dtd">
<svg version="1.1" xmlns="http://www.w3.org/2000/svg" xmlns:xlink="http://www.w3.org/1999/xlink" x="0px" y="0px" width="410.9px"
	 height="70.7px" viewBox="0 0 410.9 70.7" style="enable-background:new 0 0 410.9 70.7;" xml:space="preserve">
<g id="Layer_1">
</g>
<g id="Layer_3">
	<g>
		<polygon style="fill:#FFFFFF;" points="9.1,27.4 22.1,34.8 31.2,29.6 13.7,19.5 29.2,10.6 46.6,20.6 55.8,15.4 29.2,0 4.6,14.2 
			0,16.8 0,22.1 0,30.8 9.1,36.1 		"/>
		<polygon style="fill:#FFFFFF;" points="49.2,25 49.2,48.6 33.7,57.6 33.7,34 24.6,39.2 24.6,57.6 9.1,48.6 9.1,41.9 0,36.7 
			0,53.9 24.6,68.1 29.2,70.7 33.7,68.1 58.3,53.9 58.3,19.8 		"/>
	</g>
	<path style="fill:#FFFFFF;" d="M87.3,20.6h22v5.7H93.8v8.8h11.6v5.7H93.8v13.8h-6.4V20.6z"/>
	<path style="fill:#FFFFFF;" d="M118.9,20.6h11.3c2.1,0,4,0.3,5.5,1c1.5,0.6,2.7,1.5,3.6,2.5c0.9,1,1.6,2.1,2,3.3
		c0.4,1.2,0.6,2.3,0.6,3.4c0,2.1-0.5,4-1.4,5.7c-0.9,1.6-2.4,3-4.3,4l7.9,14.2h-7.2l-6.9-13.4H125v13.4h-6.2V20.6z M130.2,35.9
		c1.6,0,2.9-0.5,3.8-1.4c0.9-1,1.4-2.1,1.4-3.5c0-1.5-0.5-2.7-1.4-3.6c-1-0.9-2.2-1.4-3.7-1.4H125v9.8H130.2z"/>
	<path style="fill:#FFFFFF;" d="M189.1,20.6h6l9.4,16.1l9.3-16.1h6l1.6,34h-6.3L214,31.1L205.8,45h-3l-8.2-13.5l-1.1,23.2h-6
		L189.1,20.6z"/>
	<path style="fill:#FFFFFF;" d="M232.4,20.6h22v5.7h-15.6v8h11.5V40h-11.5v8.9h16.8v5.8h-23.2V20.6z"/>
	<path style="fill:#FFFFFF;" d="M323.5,55.6c-2.5,0-4.8-0.5-6.9-1.4c-2.1-0.9-4-2.2-5.6-3.8c-1.6-1.6-2.9-3.5-3.8-5.7
		c-0.9-2.2-1.4-4.5-1.4-7c0-2.5,0.5-4.8,1.4-7c0.9-2.2,2.2-4.1,3.7-5.7c1.6-1.6,3.4-2.9,5.6-3.8c2.2-0.9,4.5-1.4,7-1.4
		c2.5,0,4.8,0.5,6.9,1.4c2.1,0.9,4,2.2,5.6,3.8c1.6,1.6,2.9,3.5,3.8,5.7c0.9,2.2,1.4,4.5,1.4,7c0,2.5-0.5,4.8-1.4,7
		c-0.9,2.2-2.2,4.1-3.8,5.7c-1.6,1.6-3.5,2.9-5.6,3.8C328.3,55.1,325.9,55.6,323.5,55.6z M323.5,49.5c1.7,0,3.2-0.3,4.5-1
		c1.4-0.6,2.5-1.5,3.5-2.6c1-1.1,1.7-2.4,2.2-3.8c0.5-1.5,0.8-3,0.8-4.6c0-1.6-0.3-3.2-0.8-4.6c-0.5-1.4-1.2-2.7-2.2-3.8
		c-1-1.1-2.1-1.9-3.5-2.6c-1.4-0.6-2.9-0.9-4.5-0.9c-1.7,0-3.2,0.3-4.6,0.9c-1.3,0.6-2.5,1.5-3.4,2.6c-1,1.1-1.7,2.4-2.2,3.8
		c-0.5,1.4-0.8,3-0.8,4.6c0,1.6,0.3,3.1,0.8,4.6c0.5,1.5,1.2,2.7,2.2,3.8c1,1.1,2.1,2,3.4,2.6C320.2,49.2,321.8,49.5,323.5,49.5z"/>
	<path style="fill:#FFFFFF;" d="M348.9,20.6h11.3c2.1,0,4,0.3,5.5,1c1.5,0.6,2.7,1.5,3.6,2.5c0.9,1,1.6,2.1,2,3.3
		c0.4,1.2,0.6,2.3,0.6,3.4c0,2.1-0.5,4-1.4,5.7c-0.9,1.6-2.4,3-4.3,4l7.9,14.2h-7.2l-6.9-13.4h-4.8v13.4h-6.2V20.6z M360.2,35.9
		c1.6,0,2.9-0.5,3.8-1.4c0.9-1,1.4-2.1,1.4-3.5c0-1.5-0.5-2.7-1.4-3.6c-1-0.9-2.2-1.4-3.7-1.4h-5.1v9.8H360.2z"/>
	<path style="fill:#FFFFFF;" d="M383.2,20.6h6.4v14l12.6-14h7.3L397,34.6l13.9,20.1h-7.7l-10.3-15.4l-3.2,3.5v11.9h-6.4V20.6z"/>
	<path style="fill:#FFFFFF;" d="M297.7,54.6h-6l-9.4-16.1l-9.3,16.1h-6l-1.6-34h6.3l1.1,23.6l8.2-13.9h3l8.2,13.5l1.1-23.2h6
		L297.7,54.6z"/>
	<path style="fill:#FFFFFF;" d="M161.5,20.6h6.6l12.9,34h-7.1l-3-8.6h-12.6l-3,8.6h-6.7L161.5,20.6z M169.1,40.7l-4.5-13.2L160,40.7
		H169.1z"/>
</g>
</svg>
